<?xml version="1.0" encoding="utf-8"?>
<!-- Generator: Adobe Illustrator 19.0.0, SVG Export Plug-In . SVG Version: 6.00 Build 0)  -->
<svg version="1.1" id="Layer_1" xmlns="http://www.w3.org/2000/svg" xmlns:xlink="http://www.w3.org/1999/xlink" x="0px" y="0px"
	 viewBox="202 -62.5 1000 1034.4" style="enable-background:new 202 -62.5 1000 1034.4;" xml:space="preserve">
<style type="text/css">
	.st0{fill:#242222;}
	.st1{fill:#CF9204;}
	.st2{fill:#D2D3D5;}
	.st3{fill:#FEFEFE;}
	.st4{fill:#70000C;}
</style>
<g>
	<path class="st0" d="M216.8-47.6c27.8,0,55.6-0.1,83.3,0c7.6,1.4,14.7,4.5,22.2,6.2c0-2.1,0.1-4.2,0.1-6.2
		c202.2,0,404.5-0.1,606.7,0c6.5,2.3,11.9,7.3,18,10.5c0-3.5,0.1-7,0.1-10.6c46.2-0.1,92.5,0,138.8,0c0,1.7,0,3.4,0.1,5.1
		c15.2-6.6,31.7-5.4,47.8-4.8c17.9,5.7,35.7,11.7,53.4,17.9c0,36.1,0,72.2,0,108.4c-17.1-3-35.9,0.1-51.6-7.6c0,2.8,0,5.6,0,8.4
		c17.6,7.8,34.5,17.2,51.6,26c0.1,66.9,0,133.8,0,200.6c-21.9-2.2-43.8-3.6-65.6-6.6c-11.7-5-23.9-9.4-34.8-16.2
		c-46.2-15.8-92.5-31.3-139.6-44.2c0-5,0-10.1,0-15.1c-9.7,3-18.3,12.9-29,8.8c-20.4-3.9-40.7-8.5-61.3-11.3
		c17.9,52.2,32.2,106.1,38.7,161c19.3-0.4,37.4-8.9,52.9-20c34-23.1,57.7-59.7,95.5-77.5c7.5-3.5,19.3-5.9,23.8,3.2
		c10.5,20.8,10.2,45.3,5.1,67.6c-7.6,32.3-23.9,62-43.5,88.6c-37.5,50-87.7,91.9-146.8,113.4c-2.9,32.8-9.2,65.3-20.4,96.3
		c-12.3,35.1-30.5,67.7-47.4,100.8c-34.5,65.6-71,131.6-123.1,185.1c-8.3-62.7-27.8-128.7-76.9-171.8
		c-38.4-34.2-87.2-53.2-135.5-68.6C417,670,369.1,613.7,344.8,549.5c-13.7-36.5-20.9-76.4-15-115.3c4.1-26.4,16.3-54.2,40.9-67.4
		c42.6-21.9,93.8-21.3,138.3-5.5c12.6-33.6,22.4-68.7,40.2-100.1c27.2-20.5,58.8-34.3,89.7-48.4c-101.1,7.1-200.8,29.8-296,64.2
		c-42.8,14.7-84,33.6-126.1,50.2C216.7,202.5,216.8,77.5,216.8-47.6z"/>
</g>
<g>
	<g>
		<path class="st1" d="M1202-62.5v384.9c-24.7-2.3-49.3-4.4-74-7c-14.5-0.4-26.8-9.2-40-14.2c10.7,49.6-11.3,99.3-38.1,139.9
			c-38,55.5-91,102-153.6,127.5c-3.5,33.2-10.8,66-22.6,97.3c-11.4,30.8-27.2,59.7-42.1,89c-30.5,58.6-62.5,117.1-104.7,168.3
			c-14,17.3-30.1,32.7-45.6,48.7c-7.9-63.5-18.9-132-64.2-180.6c-16.3-17.5-35.9-32.1-57.2-43c-46.5-21.2-83-31.6-99.3-41.4
			c-26.3-14.4-50-33.3-70.2-55.4c-13.8-16.2,0,0-13.8-16.2c-40.8-52.2-66.2-118.3-63.3-185c1.8-35.4,14.5-74,45.9-93.7
			c42.3-24,94.4-26.7,140.6-13.3c6.5-18.2,12.9-36.5,20.1-54.4c9.1-21.3,0,0,9.1-21.3c4.8-14.9,17.3-23.9,30.5-31
			c-85.5,13.1-169.2,37.1-249.7,68.5c-35.9,15-71.9,29.6-107.8,44.5v-412C329.2-62.4,1132.3-62.5,1202-62.5z M216.8-47.6
			c0,125,0,250.1,0,375.1c42.1-16.6,83.3-35.5,126.1-50.2c95.2-34.4,194.9-57,296-64.2c-30.9,14.1-62.5,27.9-89.7,48.4
			c-17.8,31.4-27.6,66.4-40.2,100.1c-44.5-15.9-95.7-16.4-138.3,5.5c-24.6,13.1-36.8,41-40.9,67.4c-5.9,38.9,1.4,78.8,15,115.3
			c24.3,64.3,72.2,120.5,134.6,150.3c48.3,15.3,97.2,34.4,135.5,68.6c49.1,43.2,68.5,109.1,76.9,171.8
			C743.9,887,780.4,821,814.9,755.4c16.8-33.1,35.1-65.6,47.4-100.8c11.2-31,17.5-63.5,20.4-96.3c59.1-21.5,109.4-63.4,146.8-113.4
			c19.5-26.6,35.9-56.3,43.5-88.6c5.1-22.3,5.5-46.8-5.1-67.6c-4.5-9.1-16.3-6.7-23.8-3.2c-37.8,17.8-61.5,54.4-95.5,77.5
			c-15.5,11.1-33.6,19.6-52.9,20c-6.5-54.9-20.8-108.8-38.7-161c20.6,2.8,40.9,7.4,61.3,11.3c10.7,4.1,19.3-5.8,29-8.8
			c0,5,0,10.1,0,15.1c47.1,12.9,93.4,28.3,139.6,44.2c10.8,6.8,23.1,11.1,34.8,16.2c21.8,2.9,43.7,4.4,65.6,6.6
			c0-66.9,0.1-133.8,0-200.6c-17.2-8.7-34-18.2-51.6-26c0-2.8,0-5.6,0-8.4c15.8,7.7,34.6,4.6,51.6,7.6c0-36.1,0-72.2,0-108.4
			c-17.7-6.2-35.5-12.2-53.4-17.9c-16.1-0.6-32.6-1.8-47.8,4.8c0-1.7-0.1-3.4-0.1-5.1c-46.2,0-92.5,0-138.8,0c0,3.5,0,7-0.1,10.6
			c-6.2-3.2-11.5-8.2-18-10.5c-202.2-0.1-404.5-0.1-606.7,0c0,2.1-0.1,4.2-0.1,6.2c-7.5-1.8-14.7-4.8-22.2-6.2
			C272.3-47.7,244.5-47.6,216.8-47.6z M878.6,240.4c12.8,41.2,23.1,83.4,29.9,126c39.6-11.9,65.1-47,95.6-72.5
			c21.7-15.3,0,0,21.7-15.3C995.1,268.2,894.4,243.4,878.6,240.4z"/>
	</g>
	<path class="st1" d="M800.1,179.5c16.9,9.5,27.8,26.4,36.4,43.3c21.3,43.7,30.5,92,38.5,139.5c-5.5-2.6-11.2-4.5-17-6.3
		c-6.3-38.7-13.6-77.4-26-114.7C824.5,219.3,815.5,197.2,800.1,179.5z"/>
	<path class="st1" d="M569.1,402.6c77.4-32,162.9-50.2,246.5-36.7c-27.4,0.2-54.7-0.9-82.1-0.6c27.9,4.9,56.1,8.1,83.9,13
		c-28,0.4-55.9-0.7-83.9-0.6c28.5,4.8,57.2,8.4,85.8,13.1c-27.8,0.1-55.6-1-83.4-0.6c25.1,4.5,50.4,7.4,75.5,11.8
		c-62.9-1.8-125.8,7.1-186.4,23.3C606.1,418.7,587.8,410.2,569.1,402.6z"/>
	<path class="st1" d="M766.2,550.2c10.2-1.2,20.3-2.7,30.5-3.7c-1.5,82.8-25.7,165.1-69.3,235.5c17.9-44.1,29.9-90.5,36.5-137.6
		C768.1,613.2,770.2,581.5,766.2,550.2z"/>
</g>
<g>
	<path class="st2" d="M737.7,80.7l-33.5-0.1v9.5c0,0,9.3,0.4,10.8,0.5c0.3,22.9,0.3,46,0,68.8c-3.8,0.1-22.9,0.8-28.7,0.8
		c-0.2-12.9-0.3-79.6-0.3-79.6l-22.8,0.1l0.2,92.7c0,0,28.1,5.3,40.8,5.3c0,0,4.9-0.1,4.9-0.1l30.1-22L737.7,80.7z"/>
	<path class="st2" d="M841.7,84.8l-74.5-3.3l-0.3,86l8.3,4.2l14.7-8.3c0,0-0.2-54.6,0.1-70.9c3.3,0.2,22.6,1,28.8,1.6
		c0.1,11.3,0.1,64.1,0.1,64.1l22.9,30.2L841.7,84.8z"/>
	<path class="st2" d="M636,136.7l-22.5,7.4c0,0-0.1,16.4-0.2,19.8c-7.4,0.8-26.7,2.4-28.8,2.6c0-6.6-0.1-54.2,0.1-71.4
		c3.1-0.4,21.6-1.7,21.6-1.7l0.4-10.7L562,84.7l0,104.2l73.9-7.7L636,136.7z"/>
	<path class="st2" d="M530,87.1l-22.2,1.6c0,0-0.2,19.5-0.2,22.3c-0.9-3.4-5.1-21.5-5.1-21.5l-14.9,1.3c0,0,17.7,79,19.3,86
		c0.8,4,1,21,1,21l22.1-4L530,87.1z"/>
	<path class="st2" d="M947.9,93.8l-22.4-2.3c0,0,0.1,71.8-0.2,88.8c-8.8-1.2-29.1-5-29.1-5c-0.1-14.1-0.2-86.5-0.2-86.5l-22.3-1.7
		l0.1,104.8c0,0,42.4,8.4,44.6,8.4c0,0,0,0,0,0c6.5,0,12.4-3.3,18.2-6.5c3.4-1.9,11.1-5.2,11.1-5.2L947.9,93.8z"/>
	<polygon class="st2" points="478.4,91.4 456.1,93.8 456.1,209.3 478.2,203.9 	"/>
	<path class="st2" d="M1053.8,179.5l-0.8-0.1c-1.7-0.3-21.7,1.3-21.7,1.3s-0.1,21.3-0.2,25.1c-5.6-1.4-24.6-6.7-28.7-7.8
		c-0.4-20-0.2-75.2-0.2-82.9c3.2,0.4,21.7,3.5,21.7,3.5l-0.1-14.6l-44-6.1l-0.3,117l74.4,23.2L1053.8,179.5z"/>
	<path class="st2" d="M428.7,162.7l-1.4,0.6c-7.6,3.5-14.7,7.8-20.6,11.5l-0.5,0.3l0,0.5c-0.2,4-0.1,8-0.1,11.9
		c0,3.7,0,7.4-0.1,11.1c-8.7,2.6-18.7,5.4-28.8,7.6c-0.2-25.6-0.3-55.6,0-85.7c3.3-0.6,6.6-1.2,9.9-1.7c3.6-0.6,7.4-1.2,11.1-1.9
		l0.8-0.1l0.1-0.8c0.3-4.5,0.3-9.1,0-13.6l-0.1-1.1l-1.1,0.1c-12.6,1.7-27.5,3.8-42.4,6.8l-0.8,0.2l0,0.8
		c-0.2,42.5-0.2,85.6,0,128.1l0,1.4l1.3-0.4c16.7-5.3,33.8-10.4,50.2-15.4c7.3-2.2,14.6-4.4,21.8-6.6l0.7-0.3l0-0.7
		c0.1-16.7,0.2-34.1-0.1-51.1L428.7,162.7z"/>
	<path class="st2" d="M1154.8,131.1l-74-16.8v7.6l0.5,0.3c16.4,9.9,33.5,16.7,50.7,20.1c0.2,32.4,0.2,65.2,0,97.7
		c-11.2-4-20.4-7.5-28.8-10.9c-0.5-2.2-0.3-4.7-0.1-7.3c0.4-5.2,0.8-11.1-4.6-14.3c-1.6-1.1-17.7-12-17.7-12l0.2,45.2l0.4,0.3
		c21.9,15.9,43.6,30.2,69.2,30.2c0,0,0,0,0,0c1.1,0,4.2-0.1,4.2-0.1L1154.8,131.1z"/>
	<path class="st2" d="M322.9,136.2l-17.7-18.1l-56,13L249,279.5l22.3-9.2c0,0,0.3-42.4,0.2-62.8c-0.1-21.3-0.1-43.4,0.3-65.1
		c9.4-2.3,19.1-4.7,28.7-6.7c0.1,17,0.2,122.2,0.2,122.2l22.3-8.1L322.9,136.2z"/>
</g>
<g>
	<g>
		<path class="st0" d="M216.8-47.6c27.8,0,55.6-0.1,83.3,0c7.6,1.4,14.7,4.5,22.2,6.2c0-2.1,0.1-4.2,0.1-6.2
			c202.2,0,404.5-0.1,606.7,0c6.5,2.3,11.9,7.3,18,10.5c0-3.5,0.1-7,0.1-10.6c46.2-0.1,92.5,0,138.8,0c0,1.7,0,3.4,0.1,5.1
			c15.2-6.6-17.3-5.1,101.2-5c0,36.1,0,90.6,0,126.8c-17.9-1.6-35.9,0.1-51.6-7.6c0,2.8,0,5.3,0,8.1c17.6,7.8,34.5,17.2,51.6,26
			c0.1,66.9,0,133.8,0,200.6c-21.9-2.2-43.8-3.6-65.6-6.6c-11.7-5-23.9-9.4-34.8-16.2c-46.2-15.8-92.5-31.3-139.6-44.2
			c0-5,0-10.1,0-15.1c-9.7,3-18.3,12.9-29,8.8c-20.4-3.9-40.7-8.5-61.3-11.3c17.9,52.2,32.2,106.1,38.7,161
			c19.3-0.4,37.4-8.9,52.9-20c34-23.1,57.7-59.7,95.5-77.5c7.5-3.5,19.3-5.9,23.8,3.2c10.5,20.8,10.2,45.3,5.1,67.6
			c-7.6,32.3-23.9,62-43.5,88.6c-37.5,50-87.7,91.9-146.8,113.4c-2.9,32.8-9.2,65.3-20.4,96.3c-12.3,35.1-30.5,67.7-47.4,100.8
			c-34.5,65.6-71,131.6-123.1,185.1c-8.3-62.7-27.8-128.7-76.9-171.8c-38.4-34.2-87.2-53.2-135.5-68.6
			C417,670,369.1,613.7,344.8,549.5c-13.7-36.5-20.9-76.4-15-115.3c4.1-26.4,16.3-54.2,40.9-67.4c42.6-21.9,93.8-21.3,138.3-5.5
			c12.6-33.6,22.4-68.7,40.2-100.1c27.2-20.5,58.8-34.3,89.7-48.4c-101.1,7.1-200.8,29.8-296,64.2c-42.8,14.7-84,33.6-126.1,50.2
			C216.7,202.5,216.8,77.5,216.8-47.6z M245.5-18.8c0,101.2,0,202.4,0,303.5c9.8-4,19.6-8.1,29.5-12.1c0-42.5,0-85,0-127.5
			c7.4-1.7,14.7-3.4,22.1-5.1c0.1,41.1,0,82.3,0,123.4c9.8-3.8,19.7-7.4,29.6-11c0-39.6,0-79.1,0-118.6c-5.2-4.8-10.3-9.6-15.4-14.6
			c5-6.8,10.6-13.1,15.3-20c0.3-36.4,0-72.9,0.1-109.3c-9.9-2.8-19.7-6.1-29.7-8.7C279.9-19,262.7-18.7,245.5-18.8z M351.2-18.8
			c0,87.5,0,175,0,262.5c26.9-8.8,53.9-17,81.2-24.8c0-19.9,0-39.8,0-59.6c-11.1,1-19.8,8.8-29.5,13.6c0,7.8,0,15.6,0,23.4
			c-7.4,2-14.8,4-22.2,5.9c-0.1-26.2,0-52.4,0-78.6c7.4-1.4,14.8-2.6,22.2-3.9c0-10.3,0-20.7,0-31.1c-7.4,0.9-14.8,2-22.2,2.9
			c0-26.1,0-52.2,0-78.4c7.4-0.3,14.8-0.6,22.2-0.8c0,4.9,0,9.8,0,14.8c9.8,2.3,19.2,7.8,29.5,6.2c0-17.3,0-34.7,0-52
			C405.3-18.9,378.2-18.8,351.2-18.8z M452.4,213.9c9.8-2.4,19.6-4.9,29.5-7.2c0.1-41.2-0.1-82.3,0.1-123.5
			c6.9,29.9,13.4,59.9,20.5,89.8c2.9,9.5,1.2,19.6,1.6,29.4c9.8-2,19.7-3.8,29.5-5.8c0.1-71.7-0.2-143.4,0.2-215
			c-9.8-0.8-19.8-0.1-29.7-0.4C504,14.1,504.2,47.1,504,80c-7.8-32.8-14.8-65.8-22.1-98.8c-9.8,0-19.6,0-29.4,0
			C452.4,58.7,452.4,136.3,452.4,213.9z M558.4,192.9c26.9-3.8,54-6.5,81.1-8.9c0-17,0-34,0-50.9c-10.4-0.2-19.7,5.2-29.5,8
			c0,6.5,0,13,0,19.5c-7.4,0.6-14.7,1.1-22.1,1.9c0-21.5,0-43.1,0-64.6c7.3-0.5,14.7-0.9,22.1-1.2c0-8.6,0-17.3,0-25.9
			c-7.4,0.2-14.7,0.6-22.1,0.9c-0.1-21.4,0-42.9,0-64.3c7.4-0.1,14.7-0.2,22.1-0.3c0,4.1,0,8.2,0,12.3c9.8,2.3,19.3,7.2,29.5,6.1
			c0-14.8,0-29.6,0-44.4c-27.1-0.1-54.1,0-81.2,0C558.4,51.8,558.4,122.3,558.4,192.9z M659.6-12.3c0,62.8,0,125.7,0,188.5
			c16,1.5,34.6,11.5,49.1,1.4c10.7-6.1,16.6-19.3,29.3-21.8c0.8,0,2.2,0,3,0c0-29,0-57.9,0-86.9c-13.4-0.2-26.7-0.3-40.1-0.3
			c-0.1,8.4-0.1,16.9,0,25.3c3.6,0,7.3-0.1,10.9-0.1c0,20.8,0,41.6,0,62.3c-7.4,0.1-14.8,0.2-22.2,0.4c0-50,0-100.1,0-150.1
			c7.4,0,14.8-0.1,22.2-0.1c0,4,0,8,0,12c9.7,2.3,19,7.4,29.2,6.7c0-12.5,0-25,0-37.5c-13.3-2.4-26.3-7.6-40-6.6
			C686.9-19.9,673.4-14.7,659.6-12.3z M763.8-12.3c0,58.9,0,117.8,0,176.7c1.4,0.9,2.8,1.7,4.2,2.6c2.4,1.3,4.8,2.5,7.3,3.7
			c4.6-2.5,9.1-5.2,13.7-7.8c1.4-0.8,2.9-1.5,4.3-2.3c0-21.5,0-43,0-64.6c7.4,0.4,14.8,0.7,22.2,1.1c0,19.5,0,39,0,58.5
			c1.5,0.6,3,1.3,4.5,2c9.6,6.6,15.3,17,20.9,26.9c0.9,2.7,2.4,5.1,4.2,7.4c0.4-68,0.1-135.9,0.1-203.9c-13.4-2.5-26.4-7.8-40.2-6.8
			C790.9-20,777.5-14.7,763.8-12.3z M870-18.8c0,71.2,0,142.4,0,213.5c17.4,2.9,34.6,6.6,51.9,9.7c10-4.4,19.7-9.5,29.6-14
			c0-63.5,0-127.1,0-190.6C941.6-6.3,932-13,921.9-18.7C904.6-19,887.3-18.7,870-18.8z M976-18.8c0,78.9-0.1,157.8,0,236.7
			c27.3,7.7,54.3,16.4,81.2,25.4c0-21.9,0-43.9,0-65.8c-9.5-4-19.7-0.3-29.6,0.1c0,8,0,15.9,0,23.9c-7.4-2-14.7-4-22.1-6.1
			c0-25.4,0-50.8,0-76.3c7.4,1.3,14.7,2.6,22.1,3.9c0-10.6,0-21.2,0-31.8c-7.4-1-14.7-2-22.1-3.1c0-25.3,0-50.6,0-76
			c7.4,0.3,14.7,0.6,22.1,0.9c0,5.1,0,10.1,0,15.2c9.8,3.5,18.8,10.6,29.6,10.3c0-19.1,0-38.2,0-57.3
			C1030.1-18.8,1003.1-18.8,976-18.8z M1077.2-10c0,44.7,0,89.4,0,134.2c16.6,8.5,32.8,18,51.7,20.6c0,30.1,0,60.3,0,90.5
			c-7.4-2.8-14.7-5.6-22.1-8.4c0-5.9,0.1-11.8-0.1-17.7c-9.8-6-17.9-15.6-29.5-17.8c0,16.9,0,33.9,0,50.8
			c17.1,11.3,33.6,24.5,53.7,30c9.2,1,18.3,2,27.5,2.8c0-50.6,0-101.2,0-151.8c-16.4-8.8-32.7-18-51.7-19.3c0-29,0-58.1,0-87.1
			c7.3,0.4,14.7,0.8,22,1.2c0,5.8,0,11.6,0,17.4c9.8,4.1,18.4,12.5,29.6,12.3c0-18.8,0-37.7,0-56.5c-8.7-3-17.5-5.9-26.3-8.8
			C1113.4-22.3,1095-15.4,1077.2-10z M741.4,182.8c-8,8.2-17.3,15.1-27.2,20.8c-42.1,24.6-88.5,41.2-129.9,67.1
			c-5.6,4-12.4,6.9-15.6,13.3c-18.1,32.1-27.9,68.1-34.8,104.1c6.9,2.2,13.6,7.2,21,7.2c80.5-34.1,169.4-53.9,256.9-41.9
			c-8.4-52.1-20.4-103.9-39.8-153.1c-1.6-4.4-6.9-5-10-8.1C756,188.3,749.6,177.8,741.4,182.8z M800.1,179.5
			c15.4,17.7,24.4,39.8,32,61.8c12.3,37.3,19.7,76,26,114.7c5.8,1.8,11.5,3.7,17,6.3c-8-47.6-17.2-95.9-38.5-139.5
			C827.9,205.9,817,189,800.1,179.5z M1034.5,319.8c-28.6,25.3-55.9,52.8-89.4,71.7c-17.3,9.8-36.7,17.2-56.9,17.1
			c-0.8,8.5-1,17.2-3.8,25.4c-0.3-3.1-0.5-6.3-0.7-9.4c-26.8-9.5-55.5-11.5-83.7-12.1c-42.8,0.1-85.6,4.6-127.5,13.4
			c23.6,3.6,47.3,6.5,70.9,10.2c-33.3-0.6-66.5-2.5-99.8-3.5c62.7,24.1,131.5,37.7,198.3,24.9c70.4-12.7,132.4-52.2,185.9-98
			c-4.2,10.6-15.8,17.5-16.4,29.5c-3.5,19.2-9.5,38-18.6,55.3c-14.4,28.7-38.8,50.5-63.9,69.8c26.5-16.5,49.4-38.4,70.1-61.6
			c21.2-24.7,40.5-51.9,51.1-82.9c5.6-17.4,8.4-37.4,0-54.4C1045.5,310.2,1038.7,316.9,1034.5,319.8z M569.1,402.6
			c18.6,7.6,36.9,16.1,55.9,22.8c60.7-16.2,123.6-25.1,186.4-23.3c-25.1-4.4-50.5-7.2-75.5-11.8c27.8-0.4,55.6,0.7,83.4,0.6
			c-28.5-4.8-57.2-8.4-85.8-13.1c28-0.1,56,1,83.9,0.6c-27.9-4.9-56-8.1-83.9-13c27.4-0.3,54.7,0.8,82.1,0.6
			C732.1,352.4,646.5,370.7,569.1,402.6z M422,384.4c-19.1,2.7-38.6,10.8-50.1,27c-13.1,18.3-14.7,42-12.5,63.7
			c5.5,44.3,24.9,86.1,51.2,121.7c11.1,14.2,23.3,28.2,38.7,37.8C414,587.4,390.9,528.4,396,468.9c12.4,47.5,29.8,95.6,62.8,132.9
			c-3.2-25-6.1-51.2,1.7-75.7c3.9-12.7,13.2-23.7,25.8-28.5c6.7-6.9,14.7-12.6,20.8-20.1c5.6-6.5,0.7-15.8,5.4-22.6
			c5.2-9.9,17-13.8,27.5-13.8c-20.7-21-47.5-34.9-74.4-46.5c43.9,5.5,83.9,27.2,126.9,36.9c-31.3-13.5-62.7-27-95.2-37.3
			C473.1,386.7,447.5,380.9,422,384.4z M646.5,450.4c-14.8,6.7-28.7,18.7-32.4,35.2c-4.3,18.6,4.2,37.1,14.8,51.9
			c-8.9-6.6-17.5-13.7-24.2-22.6c-3,13.7-5.6,28.6-15,39.5c65.9-11.6,131-27.5,197.6-34.8c-1.4-5.4-3.8-10.6-6.5-15.5
			c-8.2,10.7-22.4,14.7-34.8,18.2c-30.9,8.4-67.7,2-88.3-24.2c6.4-7,13.6-13.8,22.6-17.2c-8.5-10.5-23.3-10.3-35.6-9.8
			c20-8.1,42.2-2.2,60.6,7.2c-1-8-8.8-12.5-15.4-15.7C675.3,458.9,660.8,454.9,646.5,450.4z M527.4,491.7
			c-17.1,19.7-20,50.5-6.3,72.6c7.9-1.2,15.7-2.8,23.5-4.1c-0.2-3.2-0.4-6.3-0.6-9.5c-5.4-2.2-10.1-7.2-7.1-13.3
			c3.9-8-2.1-15.8-3.4-23.7c3.8,5.5,7.5,11.1,11.2,16.6c-4.9,5.9-4.6,14.8,4.9,14.4c1.1,4.6,2.2,9.3,3.3,13.9
			c4.1-0.7,8.1-1.4,12.2-2.2c-0.8-21-7.7-42.1-20.2-59.1C541.2,492.2,533.2,485.7,527.4,491.7z M534,580.3
			c-4.3,0.7-9.1,0.2-12.9,2.7c29.8-0.2,59.6-3.3,89.5-3.4c-30.5,3.4-61,6.1-91.5,9.1c0,0.6-0.1,1.7-0.1,2.3
			c41.6,8.9,83.2,27.6,111.1,60.7c-32.8-24.2-70.8-41.9-110.9-50C576.1,640.5,631.6,684,671.4,741c19.9,27.7,34.9,58.4,48.2,89.7
			C783,746,826.8,641.9,823,534.5C725.2,539.5,630.9,568.8,534,580.3z"/>
	</g>
	<path class="st0" d="M793.3,70.3c0-21.1,0-42.2,0-63.3c7.4,0.1,14.8,0.1,22.2,0.2c0,21.3,0,42.6,0,63.9
		C808.1,70.9,800.7,70.5,793.3,70.3z"/>
	<path class="st0" d="M899.6,8.8c7.5,0.2,15,0.4,22.4,0.6c0,55.7,0,111.3,0,167c-7.5-1.3-15-2.6-22.4-4
		C899.5,117.9,899.6,63.4,899.6,8.8z"/>
	<path class="st0" d="M275,18c7.4-0.4,14.7-0.8,22.1-1.1c0.1,29.1,0,58.3,0,87.4c-7.3,1.4-14.7,2.7-22.1,4C275,78.2,275,48.1,275,18
		z"/>
	<path class="st0" d="M581,286.7c49.9-22.4,99.5-46.4,143.9-78.6c-6,21-13.5,43.1-30.2,58.1c-15.6,13.5-37,16.1-56.8,17.9
		C618.9,285.2,600,286.4,581,286.7z"/>
</g>
<g>
	<g>
		<path class="st3" d="M245.5-18.8c17.2,0.1,34.3-0.2,51.5,0.1c9.9,2.6,19.7,5.9,29.7,8.7c-0.1,36.4,0.2,72.9-0.1,109.3
			c-4.7,6.9-10.3,13.2-15.3,20c5.1,4.9,10.2,9.8,15.4,14.6c0,39.6,0,79.1,0,118.6c-9.9,3.5-19.8,7.1-29.6,11c0-41.1,0-82.3,0-123.4
			c-7.4,1.7-14.7,3.4-22.1,5.1c0,42.5,0,85,0,127.5c-9.8,4-19.6,8.1-29.5,12.1C245.5,183.5,245.5,82.4,245.5-18.8z M275,18
			c0,30.1,0,60.2,0,90.3c7.4-1.3,14.7-2.6,22.1-4c0-29.1,0.1-58.3,0-87.4C289.7,17.2,282.4,17.6,275,18z M250.2,131.9
			c-0.5,48.7-0.2,97.4-0.1,146.1c6.8-2.7,13.6-5.5,20.3-8.4c0.7-42.7-0.3-85.4,0.5-128c10.2-2.5,20.4-4.9,30.7-7.1
			c0.2,40.7-0.2,81.4,0.2,122.1c6.8-2.2,13.6-4.7,20.3-7.4c0.2-37.5,0.4-75.2-0.1-112.7c-4.6-6.5-11.3-11.7-17-17.3
			C286.5,122.6,268.3,127.4,250.2,131.9z"/>
	</g>
	<g>
		<path class="st3" d="M351.2-18.8c27,0,54.1,0,81.1,0c0,17.3,0,34.7,0,52c-10.3,1.6-19.7-3.8-29.5-6.2c0-4.9,0-9.8,0-14.8
			c-7.4,0.2-14.8,0.6-22.2,0.8c0,26.1,0,52.2,0,78.4c7.4-0.9,14.8-2,22.2-2.9c0,10.4,0,20.7,0,31.1c-7.4,1.3-14.8,2.5-22.2,3.9
			c0,26.2,0,52.4,0,78.6c7.4-1.9,14.8-4,22.2-5.9c0-7.8,0-15.6,0-23.4c9.7-4.7,18.3-12.6,29.5-13.6c0,19.9,0,39.8,0,59.6
			c-27.2,7.7-54.3,15.9-81.2,24.8C351.1,156.2,351.2,68.7,351.2-18.8z M355.7,109.3c-0.2,42.7-0.2,85.4,0,128.1
			c24-7.6,48.1-14.7,72.1-22c0.1-17,0.2-34.1-0.1-51.1c-7.1,3.3-13.9,7.2-20.5,11.4c-0.3,7.9,0.1,15.9-0.2,23.8
			c-10.2,3.1-20.4,5.9-30.8,8.1c-0.1-29.3-0.2-58.5,0-87.8c7.2-1.5,14.5-2.4,21.8-3.8c0.4-4.5,0.3-9,0-13.5
			C383.9,104.4,369.7,106.5,355.7,109.3z"/>
	</g>
	<g>
		<path class="st3" d="M452.4,213.9c0-77.6,0-155.1,0-232.7c9.8,0,19.6,0,29.4,0c7.3,32.9,14.4,65.9,22.1,98.8
			c0.2-32.9,0-65.9,0.1-98.8c9.9,0.2,19.8-0.4,29.7,0.4c-0.4,71.7,0,143.4-0.2,215c-9.8,2-19.7,3.8-29.5,5.8
			c-0.4-9.8,1.2-19.8-1.6-29.4c-7.1-29.9-13.6-59.9-20.5-89.8c-0.2,41.1,0,82.3-0.1,123.5C472,209,462.2,211.5,452.4,213.9z
			 M508.7,89.6c-0.5,9.1,0.2,18.2-0.3,27.2c-3-8.6-4.2-17.7-6.6-26.4c-4.4-0.1-8.7,0.3-13,1.1c5.8,28.5,12.7,56.7,19.1,85
			c1.3,6.6,0.3,13.4,0.9,20.1c6.8-0.9,13.5-2.3,20.2-3.7c0.4-35,0.2-69.9,0.1-104.9C522.2,88.2,515.4,88.9,508.7,89.6z M457.1,94.7
			c-0.3,37.8-0.2,75.6-0.1,113.4c6.8-1.5,13.5-3.1,20.1-5c0.6-36.9,0.3-73.8,0.2-110.6C470.6,93.1,463.8,93.9,457.1,94.7z"/>
	</g>
	<g>
		<path class="st3" d="M558.4,192.9c0-70.6,0-141.2,0-211.8c27.1,0,54.1,0,81.2,0c-0.1,14.8,0,29.6,0,44.4
			c-10.3,1.1-19.8-3.9-29.5-6.1c0-4.1,0-8.2,0-12.3c-7.4,0.1-14.7,0.2-22.1,0.3c0,21.4,0,42.9,0,64.3c7.4-0.4,14.7-0.7,22.1-0.9
			c0,8.6,0,17.3,0,25.9c-7.4,0.3-14.7,0.8-22.1,1.2c-0.1,21.5,0,43.1,0,64.6c7.3-0.8,14.7-1.4,22.1-1.9c0-6.5,0-13,0-19.5
			c9.8-2.8,19.1-8.3,29.5-8c0,17,0,34,0,50.9C612.4,186.4,585.4,189.2,558.4,192.9z M563,85.6c-0.2,34-0.2,68,0,102
			c23.9-2.6,47.8-5.7,71.9-7.5c0.3-14.1,0.2-28.2,0.1-42.3c-7.1,1.5-13.9,4.1-20.5,6.8c-0.2,6.7,0.2,13.4-0.2,20
			c-10.3,1.1-20.5,1.8-30.8,2.8c0-24.5-0.2-49,0.1-73.4c7.2-0.8,14.5-0.7,21.7-1.7c0.2-2.9,0.3-5.8,0.3-8.8
			C591.4,83.7,577.2,84.7,563,85.6z"/>
	</g>
	<path class="st3" d="M659.6-12.3c13.7-2.4,27.2-7.6,41.4-6.6c13.7-1,26.7,4.2,40,6.6c0,12.5,0,25,0,37.5
		c-10.2,0.7-19.5-4.4-29.2-6.7c0-4,0-8,0-12c-7.4,0-14.8,0-22.2,0.1c0,50,0,100.1,0,150.1c7.4-0.2,14.8-0.3,22.2-0.4
		c0-20.8,0-41.6,0-62.3c-3.6,0-7.3,0-10.9,0.1c-0.1-8.4-0.1-16.9,0-25.3c13.4,0,26.7,0.1,40.1,0.3c0,29,0,57.9,0,86.9
		c-0.8,0-2.2,0-3,0c-3.1-24.4-0.2-49.5-1.4-74.2c-10.5-0.4-21-0.5-31.5-0.1c0,2.5,0,5,0,7.6c3.6,0.2,7.2,0.3,10.8,0.5
		c0.3,23.6,0.3,47.1,0,70.7c-10.2,0.3-20.5,0.8-30.7,0.8c-0.5-26.5,0.2-53.1-0.3-79.6c-6.9-0.3-13.9-0.2-20.8,0.1
		c-0.1,30.3-0.5,60.7,0.2,91c14.6,3.5,29.4,5.5,44.4,5c-14.5,10.1-33.2,0.1-49.1-1.4C659.6,113.4,659.6,50.6,659.6-12.3z"/>
	<g>
		<path class="st3" d="M763.8-12.3c13.7-2.5,27.1-7.7,41.2-6.6c13.8-1,26.9,4.4,40.2,6.8c-0.1,68,0.2,135.9-0.1,203.9
			c-1.8-2.2-3.2-4.7-4.2-7.4c-0.1-32.9,0.2-65.9-0.1-98.8c-24.1-1.7-48.3-3-72.5-3.2c-0.3,28.2,0.1,56.3-0.2,84.5
			c-1.4-0.9-2.8-1.7-4.2-2.6C763.8,105.6,763.8,46.7,763.8-12.3z M793.3,70.3c7.4,0.3,14.8,0.6,22.2,0.8c0-21.3,0-42.6,0-63.9
			C808.1,7.1,800.7,7,793.3,7C793.3,28.1,793.3,49.2,793.3,70.3z"/>
	</g>
	<g>
		<path class="st3" d="M870-18.8c17.3,0.1,34.6-0.2,51.8,0.1c10.1,5.8,19.7,12.4,29.6,18.5c0.1,63.5,0,127.1,0,190.6
			c-9.9,4.5-19.6,9.6-29.6,14c-17.3-3.1-34.5-6.8-51.9-9.7C870,123.5,870,52.4,870-18.8z M899.6,8.8c0,54.5,0,109.1,0,163.6
			c7.5,1.4,15,2.6,22.4,4c0-55.7,0-111.3,0-167C914.5,9.2,907,9,899.6,8.8z M874.7,88.1c-0.2,34.3-0.4,68.7,0.1,103
			c12.5,2.2,25,4.6,37.4,7.1c12.7,4.6,23.1-6.5,34.5-10.3c0.7-31,0.3-62.1,0.2-93.1c-6.8-0.8-13.6-1.6-20.4-2.1
			c-0.2,29.6,0.3,59.3-0.2,88.9c-10.4-1.4-20.8-3.4-31.1-5.3c-0.3-28.8,0.1-57.7-0.2-86.5C888.2,88.8,881.5,88.2,874.7,88.1z"/>
	</g>
	<g>
		<path class="st3" d="M976-18.8c27.1,0,54.1,0,81.2,0c0,19.1,0,38.2,0,57.3c-10.8,0.3-19.8-6.8-29.6-10.3c0-5.1,0-10.1,0-15.2
			c-7.4-0.3-14.7-0.6-22.1-0.9c0,25.3,0,50.6,0,76c7.4,1.1,14.7,2,22.1,3.1c0,10.6,0,21.2,0,31.8c-7.4-1.3-14.7-2.6-22.1-3.9
			c0,25.4,0,50.8,0,76.3c7.4,2.1,14.7,4.1,22.1,6.1c0-8,0-16,0-23.9c9.8-0.3,20-4.1,29.6-0.1c0,21.9,0,43.9,0,65.8
			c-26.9-9.1-53.9-17.7-81.2-25.4C975.9,138.9,976,60.1,976-18.8z M980.5,214.2c24.1,7.4,48.2,15,72.3,22.6
			c0.1-18.8,0.2-37.6-0.1-56.4c-6.9-1.1-13.8,0.4-20.6,1.2c-0.3,8.5,0.1,17-0.2,25.5c-10.2-2.6-20.4-5.6-30.6-8.3
			c-0.7-28.2-0.2-56.5-0.2-84.8c7.3,0.7,14.5,2.7,21.8,3.5c0.3-4.2,0.3-8.4-0.1-12.6c-14-2.1-28-4.4-42.1-5.9
			C980,137.3,980.6,175.8,980.5,214.2z"/>
	</g>
	<g>
		<path class="st3" d="M1077.2-10c17.8-5.4,36.2-12.2,55-7.7c8.8,2.9,17.5,5.8,26.3,8.8c0,18.8,0,37.7,0,56.5
			c-11.2,0.2-19.8-8.1-29.6-12.3c0-5.8,0-11.6,0-17.4c-7.4-0.4-14.7-0.8-22-1.2c-0.1,29,0,58.1,0,87.1c19,1.3,35.3,10.5,51.7,19.3
			c0,50.6,0,101.2,0,151.8c-9.2-0.9-18.4-1.8-27.5-2.8c-20.2-5.4-36.6-18.6-53.7-30c0-16.9,0-33.9,0-50.8
			c11.6,2.2,19.8,11.8,29.5,17.8c0.2,5.9,0,11.8,0.1,17.7c7.4,2.8,14.7,5.6,22.1,8.4c0-30.2,0-60.3,0-90.5
			c-18.8-2.6-35.1-12-51.7-20.6C1077.2,79.4,1077.2,34.7,1077.2-10z M1081.8,115.5c0,1.9,0,3.9,0,5.8c15.9,9.6,32.9,16.7,51.2,20.1
			c0.2,33.3,0.2,66.6,0,99.9c-10.3-3.7-20.5-7.5-30.6-11.6c-1.8-7,3.2-17.1-4.4-21.5c-5.3-3.8-10.5-7.7-16.1-11.1
			c-0.2,14.3-0.5,28.6,0.2,42.9c21.2,15.4,44.3,31.2,71.8,29.9c0.1-46,0.3-92-0.1-138C1130,125.8,1106,120.1,1081.8,115.5z"/>
	</g>
	<path class="st3" d="M789.1,91.5c10.2,0.6,20.5,0.7,30.8,1.7c0.3,21.5-0.1,43,0.1,64.5c-1.5-0.7-3-1.3-4.5-2c0-19.5,0-39,0-58.5
		c-7.4-0.4-14.8-0.7-22.2-1.1c0,21.5,0,43,0,64.6c-1.4,0.8-2.9,1.5-4.3,2.3C789,139.1,788.7,115.3,789.1,91.5z"/>
	<path class="st3" d="M646.5,450.4c14.3,4.5,28.9,8.5,43.4,12.2c6.5,3.2,14.4,7.8,15.4,15.7c-18.4-9.4-40.6-15.3-60.6-7.2
		c12.3-0.5,27.1-0.7,35.6,9.8c-9,3.4-16.1,10.2-22.6,17.2c20.6,26.2,57.3,32.6,88.3,24.2c12.5-3.5,26.6-7.4,34.8-18.2
		c2.7,4.9,5,10.1,6.5,15.5c-66.6,7.2-131.7,23.2-197.6,34.8c9.5-10.9,12-25.8,15-39.5c6.7,8.8,15.3,16,24.2,22.6
		c-10.6-14.8-19.1-33.4-14.8-51.9C617.7,469.1,631.6,457.1,646.5,450.4z"/>
	<path class="st3" d="M527.4,491.7c5.8-6.1,13.9,0.5,17.6,5.6c12.5,17,19.4,38.1,20.2,59.1c-4.1,0.8-8.1,1.5-12.2,2.2
		c-1.1-4.6-2.2-9.3-3.3-13.9c-9.5,0.4-9.9-8.5-4.9-14.4c-3.7-5.5-7.4-11.1-11.2-16.6c1.4,7.9,7.3,15.7,3.4,23.7
		c-3,6.1,1.7,11.2,7.1,13.3c0.2,3.1,0.4,6.3,0.6,9.5c-7.9,1.3-15.6,3-23.5,4.1C507.4,542.2,510.3,511.5,527.4,491.7z"/>
</g>
<g>
	<path class="st2" d="M664.2,81.7c6.9-0.4,13.9-0.4,20.8-0.1c0.5,26.5-0.2,53.1,0.3,79.6c10.2,0,20.5-0.6,30.7-0.8
		c0.3-23.5,0.3-47.1,0-70.7c-3.6-0.2-7.2-0.3-10.8-0.5c0-2.5,0-5.1,0-7.6c10.5-0.4,21-0.3,31.5,0.1c1.2,24.7-1.7,49.8,1.4,74.2
		c-12.7,2.5-18.5,15.7-29.3,21.8c-15,0.5-29.9-1.5-44.4-5C663.7,142.3,664.1,112,664.2,81.7z"/>
	<path class="st2" d="M768.2,82.5c24.2,0.2,48.4,1.5,72.5,3.2c0.3,32.9,0,65.9,0.1,98.8c-5.6-9.9-11.3-20.3-20.9-26.9
		c-0.2-21.5,0.2-43-0.1-64.5c-10.2-1-20.5-1.1-30.8-1.7c-0.4,23.8-0.1,47.6-0.1,71.4c-4.6,2.6-9,5.4-13.7,7.8
		c-2.5-1.2-4.9-2.4-7.3-3.7C768.3,138.9,767.9,110.7,768.2,82.5z"/>
	<path class="st2" d="M563,85.6c14.2-0.9,28.4-1.9,42.6-2c0,2.9,0,5.8-0.3,8.8c-7.2,1-14.5,0.8-21.7,1.7c-0.3,24.5-0.1,49-0.1,73.4
		c10.3-0.9,20.6-1.7,30.8-2.8c0.3-6.7,0-13.4,0.2-20c6.6-2.7,13.4-5.3,20.5-6.8c0.2,14.1,0.3,28.2-0.1,42.3
		c-24,1.8-47.9,4.9-71.9,7.5C562.8,153.6,562.9,119.6,563,85.6z"/>
	<path class="st2" d="M508.7,89.6c6.7-0.8,13.5-1.5,20.3-1.5c0.1,35,0.3,69.9-0.1,104.9c-6.7,1.4-13.4,2.8-20.2,3.7
		c-0.5-6.7,0.5-13.5-0.9-20.1c-6.5-28.3-13.4-56.6-19.1-85c4.3-0.9,8.6-1.2,13-1.1c2.4,8.8,3.6,17.8,6.6,26.4
		C508.9,107.8,508.2,98.7,508.7,89.6z"/>
	<path class="st2" d="M874.7,88.1c6.8,0.1,13.6,0.7,20.3,1.6c0.3,28.8-0.1,57.7,0.2,86.5c10.3,1.9,20.7,3.9,31.1,5.3
		c0.5-29.6,0-59.3,0.2-88.9c6.8,0.5,13.6,1.3,20.4,2.1c0.1,31,0.5,62.1-0.2,93.1c-11.4,3.8-21.8,14.9-34.5,10.3
		c-12.4-2.5-24.9-4.9-37.4-7.1C874.2,156.7,874.5,122.4,874.7,88.1z"/>
	<path class="st2" d="M457.1,94.7c6.8-0.8,13.5-1.6,20.3-2.2c0.1,36.9,0.5,73.8-0.2,110.6c-6.7,1.8-13.4,3.5-20.1,5
		C456.9,170.3,456.8,132.5,457.1,94.7z"/>
	<path class="st2" d="M980.5,214.2c0.1-38.4-0.5-76.8,0.3-115.2c14.1,1.5,28.1,3.8,42.1,5.9c0.4,4.2,0.4,8.4,0.1,12.6
		c-7.3-0.7-14.5-2.8-21.8-3.5c0,28.2-0.4,56.5,0.2,84.8c10.2,2.7,20.3,5.7,30.6,8.3c0.3-8.5-0.1-17,0.2-25.5
		c6.8-0.8,13.7-2.3,20.6-1.2c0.3,18.8,0.2,37.6,0.1,56.4C1028.7,229.2,1004.6,221.6,980.5,214.2z"/>
	<path class="st2" d="M355.7,109.3c14-2.8,28.2-4.9,42.3-6.8c0.3,4.5,0.3,9,0,13.5c-7.2,1.4-14.5,2.4-21.8,3.8
		c-0.3,29.2-0.2,58.5,0,87.8c10.4-2.2,20.7-5.1,30.8-8.1c0.3-7.9-0.1-15.9,0.2-23.8c6.6-4.1,13.4-8.1,20.5-11.4
		c0.3,17,0.2,34,0.1,51.1c-24,7.3-48.1,14.4-72.1,22C355.5,194.7,355.5,152,355.7,109.3z"/>
	<path class="st2" d="M1081.8,115.5c24.2,4.6,48.1,10.3,72,16.4c0.4,46,0.2,92,0.1,138c-27.5,1.3-50.6-14.5-71.8-29.9
		c-0.6-14.3-0.3-28.6-0.2-42.9c5.6,3.4,10.8,7.4,16.1,11.1c7.6,4.4,2.6,14.5,4.4,21.5c10.1,4.1,20.3,7.9,30.6,11.6
		c0.2-33.3,0.2-66.6,0-99.9c-18.3-3.5-35.3-10.5-51.2-20.1C1081.8,119.4,1081.8,117.4,1081.8,115.5z"/>
	<path class="st2" d="M250.2,131.9c18.1-4.5,36.3-9.4,54.7-12.7c5.7,5.7,12.4,10.8,17,17.3c0.5,37.5,0.3,75.1,0.1,112.7
		c-6.6,2.8-13.4,5.2-20.3,7.4c-0.4-40.7,0-81.4-0.2-122.1c-10.3,2.1-20.5,4.6-30.7,7.1c-0.8,42.7,0.2,85.4-0.5,128
		c-6.7,2.9-13.5,5.7-20.3,8.4C250,229.4,249.7,180.6,250.2,131.9z"/>
</g>
<g>
	<g>
		<path class="st4" d="M741.4,182.8c8.2-5,14.5,5.4,20.6,9.5c3.1,3,8.4,3.7,10,8.1c19.3,49.2,31.3,101,39.8,153.1
			c-87.5-12-176.4,7.8-256.9,41.9c-7.3,0-14-5-21-7.2c6.9-36,16.8-72,34.8-104.1c3.2-6.4,10.1-9.4,15.6-13.3
			c41.4-25.9,87.8-42.5,129.9-67.1C724.2,197.9,733.4,191,741.4,182.8z M581,286.7c19-0.3,37.9-1.5,56.9-2.7
			c19.8-1.7,41.2-4.3,56.8-17.9c16.8-14.9,24.2-37.1,30.2-58.1C680.4,240.3,630.8,264.2,581,286.7z"/>
	</g>
	<path class="st4" d="M1034.5,319.8c4.2-2.9,11.1-9.6,15.8-4.6c8.4,17,5.6,37,0,54.4c-10.6,31-29.8,58.3-51.1,82.9
		c-20.7,23.2-43.6,45.1-70.1,61.6c25.1-19.2,49.5-41,63.9-69.8c9.1-17.3,15.1-36.1,18.6-55.3c0.6-12,12.2-18.9,16.4-29.5
		c-53.5,45.8-115.5,85.3-185.9,98c-66.8,12.8-135.7-0.8-198.3-24.9c33.3,0.9,66.5,2.9,99.8,3.5c-23.6-3.7-47.3-6.5-70.9-10.2
		c41.8-8.8,84.7-13.3,127.5-13.4c28.2,0.7,56.9,2.7,83.7,12.1c0.2,3.1,0.4,6.3,0.7,9.4c2.8-8.2,3-16.9,3.8-25.4
		c20.2,0.1,39.5-7.3,56.9-17.1C978.5,372.6,1005.9,345.1,1034.5,319.8z"/>
	<path class="st4" d="M422,384.4c25.5-3.6,51.1,2.3,75.4,9.7c32.5,10.3,63.9,23.8,95.2,37.3c-43-9.7-83-31.4-126.9-36.9
		c26.8,11.6,53.6,25.5,74.4,46.5c-10.5,0.1-22.4,3.9-27.5,13.8c-4.7,6.8,0.2,16.1-5.4,22.6c-6.1,7.5-14.1,13.2-20.8,20.1
		c-12.6,4.8-21.9,15.7-25.8,28.5c-7.8,24.5-4.9,50.7-1.7,75.7c-33-37.3-50.4-85.4-62.8-132.9c-5.2,59.6,18,118.6,53.3,165.7
		c-15.4-9.6-27.6-23.6-38.7-37.8c-26.4-35.6-45.8-77.5-51.2-121.7c-2.2-21.7-0.6-45.4,12.5-63.7C383.4,395.2,402.9,387.1,422,384.4z
		"/>
	<g>
		<path class="st4" d="M534,580.3c96.9-11.5,191.2-40.8,288.9-45.8C826.8,641.9,783,746,719.7,830.7c-13.2-31.3-28.3-62-48.2-89.7
			c-39.9-57-95.3-100.5-152.2-139.3c40,8.1,78,25.8,110.9,50c-27.9-33.1-69.4-51.8-111.1-60.7c0-0.6,0.1-1.7,0.1-2.3
			c30.5-3,61.1-5.7,91.5-9.1c-29.9,0.1-59.7,3.2-89.5,3.4C525,580.6,529.7,581,534,580.3z M766.2,550.2c3.9,31.3,1.9,63-2.3,94.2
			c-6.5,47.1-18.6,93.5-36.5,137.6c43.6-70.4,67.8-152.7,69.3-235.5C786.6,547.6,776.4,549,766.2,550.2z"/>
	</g>
</g>
</svg>
