<?xml version="1.0" encoding="utf-8"?>
<!-- Generator: Adobe Illustrator 19.0.0, SVG Export Plug-In . SVG Version: 6.00 Build 0)  -->
<svg version="1.1" id="Layer_1" xmlns="http://www.w3.org/2000/svg" xmlns:xlink="http://www.w3.org/1999/xlink" x="0px" y="0px"
	 viewBox="0 0 181.942 218.865" style="enable-background:new 0 0 181.942 218.865;" xml:space="preserve">
<style type="text/css">
	.st0{fill-rule:evenodd;clip-rule:evenodd;fill:url(#SVGID_1_);}
	.st1{fill:url(#SVGID_2_);}
	.st2{fill:url(#SVGID_3_);}
	.st3{fill:url(#SVGID_4_);}
	.st4{fill:url(#SVGID_5_);}
	.st5{fill:url(#SVGID_6_);}
	.st6{fill:url(#SVGID_7_);}
	.st7{fill:url(#SVGID_8_);}
</style>
<g>
	<linearGradient id="SVGID_1_" gradientUnits="userSpaceOnUse" x1="143.1655" y1="191.9567" x2="50.463" y2="1.8885">
		<stop  offset="0.3758" style="stop-color:#ED1C24"/>
		<stop  offset="0.497" style="stop-color:#C2151C"/>
	</linearGradient>
	<path class="st0" d="M180.523,28.849c-23.796-17.97-49.337-27.587-89.552-27.587c-40.215,0-65.757,9.618-89.552,27.587
		c0,39.415-0.158,70.79-0.158,101.219c0,26.32,21.316,41.954,38.627,55.183c15.98,12.211,51.083,32.163,51.083,32.163
		s35.102-19.952,51.082-32.163c17.311-13.229,38.627-28.862,38.627-55.183C180.68,99.639,180.523,68.264,180.523,28.849z
		 M132.593,172.637c-13.751,10.106-26.7,18.344-41.622,27.043c-14.923-8.699-27.872-16.937-41.623-27.043
		c-11.319-8.319-32.164-23.015-32.164-42.569c0-14.58,0.001-74.235,0.001-90.498c22.85-13.95,44.765-20.335,73.786-20.335
		c29.021,0,50.936,6.385,73.785,20.335c0,16.263,0,75.918,0,90.498C164.756,149.622,143.912,164.318,132.593,172.637z"/>
	<linearGradient id="SVGID_2_" gradientUnits="userSpaceOnUse" x1="143.8051" y1="193.096" x2="49.9746" y2="0.7151">
		<stop  offset="0" style="stop-color:#F37B76"/>
		<stop  offset="0.2533" style="stop-color:#710000"/>
		<stop  offset="1" style="stop-color:#710000"/>
	</linearGradient>
	<path class="st1" d="M90.971,1.261c40.215,0,65.756,9.618,89.552,27.587c0,39.415,0.157,70.79,0.157,101.219
		c0,26.32-21.316,41.954-38.627,55.183c-15.98,12.211-51.082,32.163-51.082,32.163s-35.102-19.952-51.083-32.163
		c-17.311-13.229-38.627-28.862-38.627-55.183c0-30.429,0.158-61.804,0.158-101.219C25.214,10.879,50.756,1.261,90.971,1.261
		 M90.971,0C71.25,0,54.462,2.328,39.65,7.116C25.877,11.568,13.488,18.154,0.659,27.842L0.158,28.22v0.628
		c0,20.98-0.044,39.38-0.086,57.175C0.035,101.354,0,115.836,0,130.068c0,11.753,4.117,22.442,12.586,32.676
		c7.307,8.831,16.871,16.129,25.308,22.57l1.229,0.939c15.865,12.123,50.872,32.058,51.225,32.257l0.623,0.356l0.623-0.356
		c0.352-0.199,35.359-20.134,51.224-32.257l1.23-0.939c8.438-6.44,18.001-13.739,25.308-22.57
		c8.468-10.234,12.586-20.923,12.586-32.676c0-14.232-0.034-28.713-0.071-44.044c-0.043-17.795-0.086-36.195-0.086-57.175V28.22
		l-0.502-0.378c-12.828-9.689-25.219-16.274-38.99-20.726C127.479,2.328,110.692,0,90.971,0L90.971,0z"/>
	<linearGradient id="SVGID_3_" gradientUnits="userSpaceOnUse" x1="152.3163" y1="169.7602" x2="103.4113" y2="69.4899">
		<stop  offset="0" style="stop-color:#710000"/>
		<stop  offset="0.5612" style="stop-color:#710000"/>
		<stop  offset="1" style="stop-color:#F15B5B"/>
	</linearGradient>
	<path class="st2" d="M90.971,199.68c14.922-8.699,27.871-16.937,41.622-27.043c11.318-8.319,32.163-23.015,32.163-42.569
		c0-14.58,0-74.235,0-90.498l-1.261,0.709v46.707v43.082c0,18.34-19.171,32.4-30.626,40.802l-1.023,0.751
		c-12.608,9.268-24.865,17.244-40.875,26.599V199.68z"/>
	
		<linearGradient id="SVGID_4_" gradientUnits="userSpaceOnUse" x1="148.6957" y1="169.76" x2="99.7908" y2="69.4901" gradientTransform="matrix(-1 0 0 1 178.3214 0)">
		<stop  offset="0" style="stop-color:#710000"/>
		<stop  offset="0.2092" style="stop-color:#FBD4D5"/>
		<stop  offset="0.3827" style="stop-color:#F69896"/>
		<stop  offset="1" style="stop-color:#F15B5B"/>
	</linearGradient>
	<path class="st3" d="M90.971,199.68c-14.923-8.699-27.872-16.937-41.623-27.043c-11.319-8.319-32.164-23.015-32.164-42.569
		c0-14.58,0.001-74.235,0.001-90.498l1.262,0.709l-0.001,46.707v43.082c0,18.34,19.171,32.4,30.626,40.802l1.024,0.751
		c12.608,9.268,24.865,17.244,40.875,26.599V199.68z"/>
	<linearGradient id="SVGID_5_" gradientUnits="userSpaceOnUse" x1="105.1873" y1="68.7182" x2="76.4722" y2="9.8434">
		<stop  offset="0" style="stop-color:#F15B5B"/>
		<stop  offset="0.3878" style="stop-color:#FFFFFF"/>
		<stop  offset="0.4694" style="stop-color:#F69896"/>
		<stop  offset="1" style="stop-color:#F15B5B"/>
	</linearGradient>
	<path class="st4" d="M18.447,40.279c22.912-13.861,44.646-19.783,72.524-19.783c27.877,0,49.612,5.922,72.524,19.783l1.261-0.709
		c-22.85-13.95-44.765-20.335-73.785-20.335c-29.021,0-50.937,6.385-73.786,20.335L18.447,40.279z"/>
	<linearGradient id="SVGID_6_" gradientUnits="userSpaceOnUse" x1="119.1305" y1="153.0617" x2="71.4729" y2="55.3492">
		<stop  offset="0.3758" style="stop-color:#ED1C24"/>
		<stop  offset="0.497" style="stop-color:#C2151C"/>
	</linearGradient>
	<path class="st5" d="M91.602,45.903c-1.209,0-2.324,0.662-2.902,1.725L72.39,77.617L39.268,83.4
		c-1.196,0.209-2.181,1.056-2.565,2.208c-0.385,1.152-0.107,2.421,0.723,3.307l23.694,25.273l-4.727,32.569
		c-0.176,1.21,0.331,2.418,1.316,3.141c0.577,0.423,1.263,0.639,1.954,0.639c0.489,0,0.98-0.108,1.437-0.329l30.504-14.727
		l30.505,14.727c0.455,0.22,0.947,0.329,1.435,0.329c0.689,0,1.374-0.214,1.949-0.635c0.985-0.718,1.494-1.921,1.324-3.129
		l-4.729-33.636l23.645-24.171c0.858-0.878,1.16-2.16,0.782-3.328c-0.379-1.169-1.373-2.031-2.584-2.239l-33.641-5.783
		L94.526,47.668c-0.567-1.079-1.683-1.756-2.901-1.765C91.617,45.903,91.609,45.903,91.602,45.903L91.602,45.903z"/>
	<linearGradient id="SVGID_7_" gradientUnits="userSpaceOnUse" x1="119.2867" y1="152.9856" x2="97.9112" y2="109.1594">
		<stop  offset="0" style="stop-color:#F16267"/>
		<stop  offset="0.3929" style="stop-color:#D93632"/>
		<stop  offset="1" style="stop-color:#BA141A"/>
	</linearGradient>
	<path class="st6" d="M57.708,149.898c0.577,0.423,1.263,0.639,1.954,0.639c0.489,0,0.98-0.108,1.437-0.329l30.504-14.727
		l30.505,14.727c0.455,0.22,0.947,0.329,1.435,0.329c0.689,0,1.374-0.214,1.949-0.635c0.985-0.718,1.494-1.921,1.324-3.129
		l-4.729-33.636l23.645-24.171c0.858-0.878,1.16-2.16,0.782-3.328l-1.118,0.362c0.244,0.755,0.051,1.576-0.504,2.143l-23.646,24.171
		l-0.404,0.414l0.081,0.572l4.73,33.636c0.109,0.779-0.217,1.552-0.854,2.016c-0.365,0.268-0.8,0.409-1.256,0.409
		c-0.321,0-0.633-0.071-0.924-0.212l-30.505-14.727l-0.511-0.248l-0.512,0.248L60.587,149.15c-0.287,0.139-0.607,0.212-0.925,0.212
		c-0.457,0-0.892-0.143-1.259-0.412L57.708,149.898z"/>
	<linearGradient id="SVGID_8_" gradientUnits="userSpaceOnUse" x1="106.0807" y1="126.3056" x2="71.4729" y2="55.3492">
		<stop  offset="0" style="stop-color:#9E0B0F"/>
		<stop  offset="0.4949" style="stop-color:#9E0B0F"/>
		<stop  offset="1" style="stop-color:#6D0000"/>
	</linearGradient>
	<path class="st7" d="M146.512,85.638c-0.379-1.169-1.373-2.031-2.584-2.239l-33.641-5.783L94.526,47.668
		c-0.567-1.079-1.683-1.756-2.901-1.765l0,0c-0.008,0-0.016,0-0.022,0c-1.209,0-2.324,0.662-2.902,1.725L72.39,77.617L39.268,83.4
		c-1.196,0.209-2.181,1.056-2.565,2.208c-0.385,1.152-0.107,2.421,0.723,3.307l23.694,25.273l-4.727,32.569
		c-0.176,1.21,0.331,2.418,1.316,3.141l0.695-0.949c-0.636-0.466-0.961-1.242-0.848-2.023l4.728-32.569l0.082-0.56l-0.387-0.414
		L38.283,88.112c-0.536-0.572-0.714-1.389-0.466-2.131c0.248-0.743,0.881-1.288,1.653-1.422l33.123-5.783l0.559-0.099l0.271-0.499
		L89.732,48.19c0.373-0.685,1.09-1.11,1.87-1.11h0.018c0.785,0.007,1.499,0.442,1.866,1.136l15.762,29.949l0.27,0.513l0.571,0.099
		l33.64,5.782c0.782,0.134,1.42,0.688,1.665,1.443L146.512,85.638z"/>
</g>
</svg>
