<?xml version="1.0" encoding="utf-8"?>
<!-- Generator: Adobe Illustrator 19.0.0, SVG Export Plug-In . SVG Version: 6.00 Build 0)  -->
<svg version="1.1" id="Layer_1" xmlns="http://www.w3.org/2000/svg" xmlns:xlink="http://www.w3.org/1999/xlink" x="0px" y="0px"
	 viewBox="-16.75 286.35 435.27 289.15" style="enable-background:new -16.75 286.35 435.27 289.15;" xml:space="preserve">
<style type="text/css">
	.st0{fill:#0C3872;}
	.st1{fill:#C39E37;}
	.st2{fill:#D3AE38;}
	.st3{fill:#C91112;}
	.st4{fill:#EB0505;}
</style>
<g id="_x23_ffffffff">
</g>
<g id="_x23_000000ff">
	<path d="M-16.75,286.44c145.09-0.19,290.18,0,435.27-0.09c-19.01,19-38.01,38.03-56.99,57.06c-1.64,1.41-2.91,3.99-5.45,3.57
		c-39.29-0.03-78.57-0.03-117.86,0c0.01,24.74,0.06,49.48-0.03,74.23c49.42,0.1,98.85-0.01,148.27,0.05
		c-23.1,22.98-46.06,46.09-69.08,69.15c-19.04,0.04-38.08-0.01-57.12,0.02c-32.77,28.26-65.38,56.7-98.04,85.07
		c0.1-49.42,0.01-98.84,0.05-148.26c-19.8-0.05-39.6,0-59.39-0.02c-18.72-21.95-37.39-43.94-55.98-65.99
		c38.44-0.05,76.89,0.02,115.34-0.03c0.04-4.72,0.02-9.43,0.02-14.15c-42.48,0-84.96,0.01-127.45,0
		C17.59,326.88,0.58,306.53-16.75,286.44 M3.69,295.72c11.51,14.22,23.58,28.04,35.47,41.96c2.71-0.07,5.42,0.1,8.12,0
		c41.35-0.07,82.7,0.14,124.04-0.02c0.43,7.13,0.06,14.29,0.18,21.44c-0.05,2.04-0.05,4.09,0.01,6.14c0,1.72,0,3.44,0.01,5.16
		c-4.34,0.1-8.69-0.05-13.02,0.1c-5.13-0.06-10.3-0.29-15.4,0.07c-25.42-0.24-50.86-0.13-76.28-0.05
		c6.67,7.69,13.15,15.55,19.82,23.25c1.75,2.25,3.61,4.43,5.55,6.54c4.89,5.96,10.04,11.69,14.89,17.68
		c21.48,0.05,42.95-0.06,64.43,0.05c0.03,45.68-0.09,91.37,0.06,137.05c27.74-24.15,55.57-48.19,83.28-72.37
		c0.91-0.69,1.78-1.84,3.1-1.56c18.41-0.02,36.83,0.02,55.24-0.02c1.33-0.55,2.12-1.9,3.18-2.83c15.85-15.9,31.71-31.79,47.57-47.68
		c-44.97-0.08-89.94,0-134.91-0.03c-0.29-29.74-0.07-59.48-0.12-89.22c0.01-1.3,0.01-2.6,0-3.89c41.4,0.15,82.81,0.03,124.21,0.06
		c1.28,0.29,2.02-0.88,2.82-1.61c13.35-13.48,26.86-26.8,40.16-40.32c-26.318,2.49-41.46,1.252-62.69,0.09
		c-2.341,0.168-4.483,0.42-6.95,0c-14.7-0.16-29.532,0.609-44.1,0c-3.01-0.18-5.713,0.74-9.01,0.27c-1.79-0.28-3.58-0.38-5.38-0.34
		C179.88,295.71,91.78,295.55,3.69,295.72z"/>
</g>
<g id="_x23_0c3872ff">
	<path class="st0" d="M3.69,295.72c88.09-0.17,176.19-0.01,264.28-0.08c1.8-0.04,12.799,0.092,14.917,0.064
		C210.307,309.164,128.13,322.54,55.57,336.1c-2.79,0.35-5.53,1.01-8.29,1.58c-2.7,0.1-5.41-0.07-8.12,0
		C27.27,323.76,15.2,309.94,3.69,295.72z"/>
</g>
<g id="_x23_c39e37ff">
	<path class="st1" d="M273.35,295.98c2.96-0.57,5.912-0.279,9.01-0.27c-2.1,0.82-4.18,1.72-6.39,2.2
		c-57.25,12.15-114.54,24.13-171.81,36.23c-6.98,1.39-14.01,3.01-21.18,2.71c-9.13-0.34-18.33,0.58-27.41-0.75
		C128.13,322.54,200.77,309.44,273.35,295.98z"/>
</g>
<g id="_x23_d3ae38ff">
	<path class="st2" d="M282.36,295.71c14.82-0.095,29.265-0.107,44.1,0c-51.68,21.07-103.34,42.17-154.96,63.39
		c-0.12-7.15,0.25-14.31-0.18-21.44c-41.34,0.16-82.69-0.05-124.04,0.02c2.76-0.57,5.5-1.23,8.29-1.58
		c9.08,1.33,18.28,0.41,27.41,0.75c7.17,0.3,14.2-1.32,21.18-2.71c57.27-12.1,114.56-24.08,171.81-36.23
		C278.18,297.43,280.26,296.53,282.36,295.71z"/>
	<path class="st2" d="M66.82,370.52c25.42-0.08,50.86-0.19,76.28,0.05c-18.75,7.91-37.67,15.39-56.46,23.2
		C79.97,386.07,73.49,378.21,66.82,370.52z"/>
</g>
<g id="_x23_c91112ff">
	<path class="st3" d="M326.46,295.71c3.551-0.038,3.954,0.067,6.95,0c-1.9,0.97-3.75,2.02-5.7,2.89
		c-28.19,12.12-56.43,24.15-84.57,36.38c-4.42,2.38-9.54,1.25-14.23,2.51c0.01,1.29,0.01,2.59,0,3.89
		c-14.61,5.58-28.79,12.28-43.23,18.28c-4.69,1.94-9.24,4.27-14.17,5.58c-0.06-2.05-0.06-4.1-0.01-6.14
		C223.12,337.88,274.78,316.78,326.46,295.71z"/>
	<path class="st3" d="M143.1,370.57c5.1-0.36,10.27-0.13,15.4-0.07c-2.36,1.79-5.03,3.09-7.76,4.18
		c-15.55,6.79-31.19,13.36-46.75,20.11c-3.97,1.76-8.13,3.16-11.8,5.52c-1.94-2.11-3.8-4.29-5.55-6.54
		C105.43,385.96,124.35,378.48,143.1,370.57z"/>
</g>
<g id="_x23_eb0505ff">
	<path class="st4" d="M333.41,295.71c21.042-0.076,41.8-0.06,62.69-0.09c-13.3,13.52-26.81,26.84-40.16,40.32
		c-0.8,0.73-1.54,1.9-2.82,1.61c-41.4-0.03-82.81,0.09-124.21-0.06c4.69-1.26,9.81-0.13,14.23-2.51
		c28.14-12.23,56.38-24.26,84.57-36.38C329.66,297.73,331.51,296.68,333.41,295.71z"/>
	<path class="st4" d="M185.68,359.66c14.44-6,28.62-12.7,43.23-18.28c0.05,29.74-0.17,59.48,0.12,89.22
		c44.97,0.03,89.94-0.05,134.91,0.03c-15.86,15.89-31.72,31.78-47.57,47.68c-1.06,0.93-1.85,2.28-3.18,2.83
		c-18.41,0.04-36.83,0-55.24,0.02c-1.32-0.28-2.19,0.87-3.1,1.56c-27.71,24.18-55.54,48.22-83.28,72.37
		c-0.15-45.68-0.03-91.37-0.06-137.05c-21.48-0.11-42.95,0-64.43-0.05c-4.85-5.99-10-11.72-14.89-17.68
		c3.67-2.36,7.83-3.76,11.8-5.52c15.56-6.75,31.2-13.32,46.75-20.11c2.73-1.09,5.4-2.39,7.76-4.18c4.33-0.15,8.68,0,13.02-0.1
		c-0.01-1.72-0.01-3.44-0.01-5.16C176.44,363.93,180.99,361.6,185.68,359.66z"/>
</g>
</svg>
